<?xml version="1.0" encoding="utf-8"?>
<!-- Generator: Adobe Illustrator 25.1.0, SVG Export Plug-In . SVG Version: 6.00 Build 0)  -->
<svg version="1.1" id="Layer_1" xmlns:ev="http://www.w3.org/2001/xml-events"
	 xmlns="http://www.w3.org/2000/svg" xmlns:xlink="http://www.w3.org/1999/xlink" x="0px" y="0px" viewBox="0 0 500 200"
	 style="enable-background:new 0 0 500 200;" xml:space="preserve">
<style type="text/css">
	.st0{fill:#1A2B3C;}
	.st1{fill:#FFFFFF;}
	.st2{fill:none;stroke:#1A2B3C;stroke-width:2;}
	.st3{font-family:'TimesNewRomanPSMT';}
	.st4{font-size:40px;}
	.st5{display:none;fill:#1A2B3C;enable-background:new    ;}
	.st6{display:none;fill:none;stroke:#1A2B3C;stroke-width:3;}
	.st7{display:none;fill-rule:evenodd;clip-rule:evenodd;}
	.st8{display:none;}
	.st9{display:inline;}
	.st10{display:none;clip-path:url(#SVGID_2_);}
	.st11{clip-path:url(#SVGID_2_);}
	.st12{clip-path:url(#SVGID_4_);}
	.st13{display:none;fill:#FFFFFF;}
	.st14{display:none;fill:#4D4D4D;}
	.st15{display:inline;fill:#ED1C00;}
	.st16{display:inline;fill:#D1CEC1;}
	.st17{display:inline;fill:#FFFFFF;}
	.st18{display:inline;fill:#070606;}
	.st19{fill:url(#SVGID_5_);}
	.st20{fill:#070606;}
	.st21{fill:#ED1C00;stroke:#231F20;stroke-width:55;stroke-miterlimit:10;}
	.st22{opacity:0.38;}
</style>
<path class="st0" d="M150,60c0-30-40-30-40,0s40,60,40,60s40-30,40-60S150,30,150,60z"/>
<g>
	<circle class="st1" cx="41.8" cy="157" r="20"/>
	<circle class="st0" cx="33.8" cy="152" r="2.5"/>
	<circle class="st0" cx="49.8" cy="152" r="2.5"/>
	<line class="st2" x1="41.8" y1="137" x2="41.8" y2="147"/>
	<circle class="st0" cx="41.8" cy="135" r="3"/>
</g>
<text transform="matrix(1 0 0 1 210 80)" class="st0 st3 st4">k</text>
<text transform="matrix(1 0 0 1 240 80)" class="st0 st3 st4">R</text>
<text transform="matrix(1 0 0 1 270 80)" class="st0 st3 st4">i</text>
<text transform="matrix(1 0 0 1 285 80)" class="st0 st3 st4">Z</text>
<text transform="matrix(1 0 0 1 308.3198 80)" class="st0 st3 st4">Z</text>
<text transform="matrix(1 0 0 1 340 80)" class="st0 st3 st4">m</text>
<text transform="matrix(1 0 0 1 375 80)" class="st5 st3 st4">a</text>
<path class="st6" d="M245,85c15,15,95,15,145,0"/>
<path class="st7" d="M512.6-249c-2.8,0-5-2.2-5-5v-28.8c-16.2-3-28.2-17.1-28.2-34v-26.4c0-19.1,15.5-34.6,34.6-34.6l63.2,0
	c19.1,0,34.6,15.5,34.6,34.6v26.4c0,19.1-15.5,34.6-34.6,34.6l-38.7,0l-21.8,31.1C515.7-249.8,514.2-249,512.6-249z M578.7-302.2
	h-63.1c-6.6,0-6.6-10,0-10h63.1C585.3-312.2,585.3-302.2,578.7-302.2z M578.7-325h-63.1c-6.6,0-6.6-10,0-10h63.1
	C585.3-335,585.3-325,578.7-325z M578.7-347.9h-63.1c-6.6,0-6.6-10,0-10h63.1C585.3-357.9,585.3-347.9,578.7-347.9"/>
<g class="st8">
	<g class="st9">
		<defs>
			<rect id="SVGID_1_" x="-3693.3" y="179.7" width="661.7" height="620"/>
		</defs>
		<clipPath id="SVGID_2_">
			<use xlink:href="#SVGID_1_"  style="display:none;overflow:visible;"/>
		</clipPath>
		<path class="st10" d="M-3693.3,510.3v64c0,17.7,14.8,32,33.1,32h11v-128h-11C-3678.5,478.3-3693.3,492.6-3693.3,510.3
			L-3693.3,510.3z M-3693.3,510.3"/>
		<path class="st10" d="M-3064.7,478.3h-11v128h11c18.3,0,33.1-14.3,33.1-32v-64C-3031.6,492.6-3046.4,478.3-3064.7,478.3
			L-3064.7,478.3z M-3064.7,478.3"/>
		<path class="st10" d="M-3307.3,233c-0.1,25.3-18.5,47.1-44.1,52.3v54.4h-22.1v-54.4c-28.4-5.6-47.5-31.6-43.6-59.4
			c3.9-27.8,29.4-48,58.3-46.1C-3329.8,181.7-3307.3,204.9-3307.3,233L-3307.3,233z M-3307.3,233"/>
		<g class="st11">
			<path class="st8" d="M-3461.7,510.3c0,17.7-14.8,32-33.1,32c-18.3,0-33.1-14.3-33.1-32c0-17.7,14.8-32,33.1-32
				C-3476.5,478.3-3461.7,492.6-3461.7,510.3L-3461.7,510.3z M-3461.7,510.3"/>
			<path class="st8" d="M-3197,510.3c0,17.7-14.8,32-33.1,32c-18.3,0-33.1-14.3-33.1-32c0-17.7,14.8-32,33.1-32
				C-3211.8,478.3-3197,492.6-3197,510.3L-3197,510.3z M-3197,510.3"/>
			<path d="M-3431.9,243h-397c-36.5,0-66.2,28.7-66.2,64v234.7c0,35.3,29.5,63.9,65.9,64c3,0,5.8,1.1,7.9,3.1c2.1,2,3.3,4.7,3.3,7.6
				V671c0,3.9,2.2,7.6,5.8,9.4c3.6,1.9,7.9,1.7,11.3-0.5l109.7-70.7c3.6-2.3,7.9-3.6,12.2-3.6h247c36.5,0,66.2-28.7,66.2-64V307
				C-3365.8,271.6-3395.4,243-3431.9,243L-3431.9,243z M-3762.8,445.6c-30.5,0-55.1-23.9-55.1-53.3c0-29.5,24.7-53.3,55.1-53.3
				c30.5,0,55.1,23.9,55.1,53.3C-3707.7,421.8-3732.4,445.6-3762.8,445.6L-3762.8,445.6z M-3498.1,445.6"/>
		</g>
	</g>
	<g>
		<g class="st9">
			<defs>
				<rect id="SVGID_3_" x="1236.4" y="2504.6" width="2249.9" height="2179.8"/>
			</defs>
			<clipPath id="SVGID_4_">
				<use xlink:href="#SVGID_3_"  style="overflow:visible;"/>
			</clipPath>
			<path class="st12" d="M1236.3,3666.9v225c0,62.1,50.4,112.5,112.5,112.5h37.5v-450h-37.5
				C1286.7,3554.4,1236.3,3604.7,1236.3,3666.9L1236.3,3666.9z M1236.3,3666.9"/>
			<path class="st12" d="M3373.8,3554.4h-37.5v450h37.5c62.1,0,112.5-50.4,112.5-112.5v-225
				C3486.3,3604.7,3435.9,3554.4,3373.8,3554.4L3373.8,3554.4z M3373.8,3554.4"/>
			<path class="st12" d="M2548.8,2691.9c-0.2,89-62.8,165.7-150,183.8v191.2h-75v-191.2c-96.7-19.7-161.5-111-148.3-208.8
				c13.2-97.8,99.9-168.6,198.4-162C2472.3,2511.4,2548.8,2593.2,2548.8,2691.9L2548.8,2691.9z M2548.8,2691.9"/>
		</g>
		<path class="st9" d="M2923.8,3666.9c0,62.1-50.4,112.5-112.5,112.5c-62.1,0-112.5-50.4-112.5-112.5c0-62.1,50.4-112.5,112.5-112.5
			C2873.4,3554.4,2923.8,3604.7,2923.8,3666.9L2923.8,3666.9z M2923.8,3666.9"/>
		<g class="st9">
			<path d="M2023.8,3666.9c0,62.1-50.4,112.5-112.5,112.5c-62.1,0-112.5-50.4-112.5-112.5c0-62.1,50.4-112.5,112.5-112.5
				C1973.4,3554.4,2023.8,3604.7,2023.8,3666.9L2023.8,3666.9z M2023.8,3666.9"/>
		</g>
	</g>
</g>
<rect x="-616.3" y="716.3" style="fill:none;" width="535.3" height="230.3"/>
<text transform="matrix(1 0 0 1 -616.3337 847.5283)" style="display:none;fill:#FFD020; font-family:'CCLongUnderwear-Clean'; font-size:174px;">U</text>
<g class="st8">
	<path class="st9" d="M2975.3,2615.4c-103.6,0-187.5,83.9-187.5,187.5c0,103.6,83.9,187.5,187.5,187.5
		c103.5-0.1,187.4-84,187.5-187.5C3162.8,2699.3,3078.8,2615.4,2975.3,2615.4z"/>
	<path class="st9" d="M3875.3,2615.4c-103.6,0-187.5,83.9-187.5,187.5c0,103.6,83.9,187.5,187.5,187.5
		c103.5-0.1,187.4-84,187.5-187.5C4062.8,2699.3,3978.8,2615.4,3875.3,2615.4z"/>
	<path class="st9" d="M1974.5,1205v3436h3436V1205H1974.5z M4325.3,3327.9c0,124.3-100.7,225-225,225h-839.8
		c-14.7,0-29.2,4.4-41.4,12.6L2846.1,3814c-11.5,7.7-26.3,8.4-38.5,1.9c-12.2-6.5-19.8-19.3-19.8-33.1v-192.4
		c-0.1-10.1-4.2-19.7-11.4-26.7c-7.2-7-16.9-10.9-26.9-10.8c-124-0.4-224.2-101-224.2-225v-825c0-124.3,100.7-225,225-225h1350
		c124.3,0,225,100.7,225,225V3327.9z"/>
</g>
<path class="st13" d="M-2474.3-476.2c2.2,3.8,6.9,4.2,10.5,0.7c0.5-0.5,12.5-11.6,33.8-4.1c21.1,7.5,23.6,23.5,23.7,24.4
	c0.6,4.9,4.4,7.6,8.5,6.1c4.1-1.6,7.1-6.8,6.7-11.8c-0.1-1.1-2.9-26.7-32.4-37.1s-47.8,7.7-48.5,8.5
	C-2475.5-486-2476.5-480-2474.3-476.2z"/>
<path class="st14" d="M-2940.8-81.8c-4-2.3-9.1-1.2-11.7,2.4c-0.3,0.5-9,12.4-35.2,12.7c-26,0.3-35-11.1-35.5-11.8
	c-2.6-3.6-7.8-4.5-11.7-2.2c-3.9,2.4-5,7.2-2.6,10.8c0.5,0.8,13.8,19.4,50,19c36.2-0.5,49-19.4,49.5-20.2
	C-2935.7-74.7-2936.9-79.5-2940.8-81.8z"/>
<g class="st8">
	<path class="st15" d="M1152.5-1063.6c131.7-277.4,704.3-635.5,1100.7-49.9c-8.8-3.9,267-676.4,832.6-375.1
		c113.4,60.4,209.5,159.2,251.2,277.3c94.8,268.6-55.4,529.1-187.9,753c-73.2,123.8-151.6,251.6-182,393.2
		c-14,65.1-16.3,132.6-7.3,199c4.2,31.2,19.4,155.9,71.3,211.1c-733.8-148.2-1267.8-340.8-1575.4-582
		c-181.5-142.3-347.4-344.3-352.4-576.5C1101.5-891.8,1116.6-992.9,1152.5-1063.6z"/>
	<g class="st9">
		<path class="st1" d="M1676.8-697.3c-0.7-83.8,18.8-167.1,73.2-241.3c17.7-24.1,41.3-46.2,66.6-64.4
			c47.8-34.5,100.2-33.3,151.4-1.9c42.8,26.2,67.9,63.3,85.5,105.3c36.7,87.5,36.1,177.1,20.7,267.7
			c-11.2,66.3-35.7,127.4-89.6,176.5c-16.5,15-35.4,29-55.9,39.4c-45.4,23.3-91.1,20.4-133.2-7.3c-52.4-34.5-82.4-82.4-100.5-136.8
			C1680.4-603.8,1675.8-648.4,1676.8-697.3z M2021.2-845.2c1.4-20.7-8.2-40.6-26.1-57.6c-22.3-21.2-54.3-22.7-79.2-4.2
			c-33.3,24.7-48.5,79.3-31.9,114.7c15.3,32.8,52.8,44.9,88.1,27.9C2007.1-781.2,2021.3-808.4,2021.2-845.2z"/>
		<path class="st1" d="M1784.8-294.6c30,6.9,56.4,11.9,81.9,19.1c155.2,43.9,310.6,41.6,467.5,6.4c98.7-22.1,192.8-53.2,278.4-101.4
			c52.8-29.7,102.4-63.9,152-97.6c26.2-17.8,44.1-42.9,48.1-59.8c-45-7.9-85.8,2.2-130.6,22.9c0-10.8-1.9-19.1,0.3-26.4
			c11.2-36.7,44.2-54.3,81.3-64.6c61.3-17,120.8-10.4,174.4,22c40,24.2,54.3,59.2,47.4,100.8c-3.6,21.7-23.9,32.8-42.6,48.3
			c-15-33.2-28.5-65-63.5-82.3c-39.6,77.2-103.8,135.6-179.6,183.7c-78,49.5-160.1,93.2-253.5,118.3
			c-117.6,31.7-236.7,52.5-360.1,42.8c-88.4-6.9-173.8-24.1-249.7-67.8C1811.3-244.6,1794.4-264.3,1784.8-294.6z"/>
		<path class="st1" d="M2947-933.9c-22.6-10-43.6-22.7-66.8-28.7c-41.2-10.7-81.7-2.2-120.8,11.5c-73.3,25.7-134,68.2-193.5,112.3
			c-52.1,38.6-105.8,74.2-175.4,85.7c-82.4,13.6-153.9-31.7-162.5-105.5c-2-17.4-0.3-35.1-0.3-52.6c1.6-0.6,3.3-1.1,4.9-1.7
			c4,3.4,9.9,6.2,11.6,10.3c26.4,64.2,110.6,78.2,180.4,39.4c47.7-26.5,91.6-58.3,136.1-89.1c61.1-42.3,124.8-79.7,202.9-92.5
			c67.1-11,131.9,17,167.6,72C2939.2-960.1,2949.3-947.5,2947-933.9z"/>
		<path class="st1" d="M2339.1-612c9.3-16.1,16.1-33.8,28.2-48.1c79.3-93.3,183.4-149.2,317.4-156.2c61.5-3.2,115.9,15.3,164.8,47.7
			c25.8,17.1,37.4,42.4,50.9,66.6c1.7,3,0.2,7.3,0.2,14.7C2696.8-757.3,2518.2-694.7,2339.1-612z"/>
		<path class="st1" d="M2045-1083.1c-3.7-1.8-6-2.6-7.8-4c-68-50.9-142.2-42.7-216.8-15.5c-31.4,11.4-60.1,28.4-91.2,43.5
			c5.8-9.5,11.1-19.9,18-29.5c39.1-53.7,89.7-95.3,161.9-110.8C1998.6-1218.6,2059.8-1152.6,2045-1083.1z"/>
	</g>
</g>
<g class="st8">
	<path class="st16" d="M2956.5,465.3C2756.3,217.4,2428.9,50,2056.6,4.5c-192.8-176.2-473.6-277-772.9-277
		c-189.7,0-375.3,41.5-536.8,120.3C434.3,0,256.9,265.6,273.5,549.6c-197.2-42.2-414.5-18.3-589.2,66.7
		c-167.5,81.7-284.1,209-328.2,358.7c-44.1,149.7-10.6,303.8,94.5,433.9c28.3,35.1,62.8,68.5,102.7,99.5
		c10.3,131,62.9,258.6,152.4,369.5c186.3,230.6,507.2,368.4,858.4,368.4c162.9,0,324.2-30.9,468.9-89.5
		c168.3,164.1,419,261.2,677.8,261.2c77.6,0,152.3-9,222-26.8l140.3-35.8l-143.1-28.5c-270.9-54.1-397.1-211.2-409.1-349.5
		c109.8,22.7,222.7,34.3,336.4,34.3c0,0,0,0,0,0c243.4,0,481.4-53.3,688.5-154.2C3153.1,1561.6,3337.3,937.1,2956.5,465.3z"/>
	<g>
		<path class="st17" d="M-11.1-830.4c-117-186.6-305.5-300.8-507.6-330c-175-212.7-484.6-268-724.2-117.7
			c-186.5,117-279.1,326.5-256.8,531.7c-112.4-42-242.3-33.4-351.9,35.3c-186.8,117.1-243.3,363.6-126.1,550.3
			c17.8,28.4,38.9,53.5,62,75.6c4.1,92.9,31.2,186,84.1,270.4c159,253.5,488.7,334,746.2,186.9c126.3,172.6,338.8,234.6,501,181.4
			c-182.9-47-260.9-196.1-253-314.7c194.2,61.2,412.8,40.1,598.8-76.5C98.4-49,200.1-493.4-11.1-830.4z"/>
		<g>
			<path class="st18" d="M-703.8,596.8c-148.3,0-291.9-71.7-388.3-192.8c-82.9,43.4-175.3,66.1-268.6,66.1
				c-201.3,0-385.1-101.6-491.8-271.8c-51.3-81.9-81.4-175.9-87.4-272.6c-22.8-22.9-42.6-47.5-58.8-73.4
				c-60.2-96-79.4-209.6-54.1-320c25.3-110.4,92.1-204.3,188-264.5c100.1-62.8,224.6-80.4,337.5-49.3
				c-9.5-209.5,92.1-405.4,271.1-517.6c92.5-58.1,198.9-88.7,307.5-88.7c171.5,0,332.3,74.3,442.8,204.4
				c213.4,33.5,400.9,157,515.6,339.8C228-495.6,122.5-35-225.4,183.2c-118.7,74.4-255,113.7-394.5,113.7h0
				c-65.1,0-129.8-8.4-192.7-25.3c6.8,102,79.1,218,234.3,257.8l82,21.1l-80.4,26.4C-616.6,590.2-659.3,596.8-703.8,596.8z
				 M-1078.4,339.7l13.1,17.8c86.9,118.8,222.1,189.8,361.6,189.8c9.8,0,19.4-0.4,29-1.1c-137.6-69.1-194.5-200.9-187.2-309
				l2.1-31.5l30,9.5c68.1,21.4,138.8,32.4,210,32.4h0c130.1,0,257.4-36.8,368.2-106.2C73.1-62.5,171.6-492.4-32.1-817.2
				c-108.7-173.2-287.3-289.3-490.1-318.6l-9.5-1.4l-6.1-7.4c-101.2-123-250.9-193.6-410.7-193.6c-99.3,0-196.6,28.1-281.2,81.1
				c-173.5,108.8-267.5,303.5-245.3,508l4.3,39.9l-37.6-14.1c-108.3-40.4-232.1-28.3-330.1,33.1c-84.8,53.1-143.7,136.1-166,233.6
				c-22.4,97.5-5.4,197.9,47.7,282.6c15.8,25.1,35.3,48.9,58.2,70.9l7.2,6.9l0.4,9.9c4.1,91.6,31.9,180.9,80.4,258.3
				c97.6,155.6,265.7,248.5,449.9,248.5c91.9,0,182.9-24.2,263.1-70L-1078.4,339.7z"/>
		</g>
	</g>
</g>
<g class="st8">
	<radialGradient id="SVGID_5_" cx="-4168.9971" cy="1942.5" r="2176.5044" gradientUnits="userSpaceOnUse">
		<stop  offset="0.1935" style="stop-color:#FFFFFF"/>
		<stop  offset="0.2641" style="stop-color:#F8F8F8"/>
		<stop  offset="0.3683" style="stop-color:#E4E4E4"/>
		<stop  offset="0.4932" style="stop-color:#C3C3C3"/>
		<stop  offset="0.6341" style="stop-color:#969696"/>
		<stop  offset="0.7886" style="stop-color:#5C5C5C"/>
		<stop  offset="0.9519" style="stop-color:#161616"/>
		<stop  offset="1" style="stop-color:#000000"/>
	</radialGradient>
	<rect x="-4932.5" y="1179" class="st19" width="1527" height="1527"/>
	<g>
		<path class="st16" d="M-4593.3,1361.1c-106.6,0-193.4,56.4-193.4,125.8c0,34,20.3,65.7,57.3,89.4c-3.7,21.3-19.7,46.6-54.3,56.5
			l-13.4,3.8l13.4,4c8.5,2.5,17.5,3.8,26.8,3.8c32.7,0,65.3-15.6,87.6-41.9c24.1,6.7,49.7,10.1,76,10.1
			c106.7,0,193.4-56.4,193.4-125.8C-4399.9,1417.5-4486.7,1361.1-4593.3,1361.1z"/>
		<g class="st9">
			<path class="st1" d="M-4593.3,1345c-104.6,0-189.3,54.5-189.3,121.7c0,34.3,22.1,65.3,57.6,87.4c-3.3,25-21.4,52.1-57.6,62.4
				c36.4,10.9,82.5-2.7,111.9-38.8c23.7,6.8,49.9,10.7,77.5,10.7c104.6,0,189.3-54.5,189.3-121.7
				C-4404,1399.5-4488.7,1345-4593.3,1345z"/>
			<path class="st20" d="M-4757,1624.3c-9.3,0-18.4-1.3-26.8-3.8l-13.4-4l13.4-3.8c34.6-9.9,50.6-35.2,54.3-56.5
				c-37-23.8-57.3-55.4-57.3-89.4c0-69.4,86.8-125.8,193.4-125.8c106.7,0,193.4,56.4,193.4,125.8c0,69.4-86.8,125.8-193.4,125.8
				c-26.4,0-51.9-3.4-76-10.1C-4691.7,1608.7-4724.3,1624.3-4757,1624.3z M-4767.8,1615.5c3.5,0.4,7.2,0.6,10.8,0.6
				c31.1,0,62.2-15.3,83-40.9l1.7-2.1l2.6,0.7c24.1,7,49.8,10.5,76.4,10.5c102.2,0,185.3-52.8,185.3-117.6
				c0-64.9-83.1-117.6-185.3-117.6c-102.2,0-185.3,52.8-185.3,117.6c0,31.8,19.8,61.6,55.7,83.9l2.2,1.4l-0.3,2.6
				C-4723.8,1576-4737.7,1601.8-4767.8,1615.5z"/>
		</g>
	</g>
	<g>
		<path class="st16" d="M-3523.5,1382.1h-393.8c-29.3,0-53.1,23.8-53.1,53.1v85.7c0,29.3,23.8,53.1,53.1,53.1h42.4l29.6,51.3
			l29.6-51.3h292.2c29.2,0,53-23.8,53-53.1v-85.7C-3470.4,1405.9-3494.2,1382.1-3523.5,1382.1z"/>
		<g class="st9">
			<path class="st1" d="M-3523.5,1364.3h-393.8c-27,0-49,21.9-49,49v85.7c0,27,21.9,49,49,49h44.7l27.3,47.2l27.3-47.2h294.5
				c27,0,49-21.9,49-49v-85.7C-3474.5,1386.2-3496.4,1364.3-3523.5,1364.3z"/>
			<g>
				<path class="st20" d="M-3845.3,1603.3l-29.6-51.3h-42.4c-29.3,0-53.1-23.8-53.1-53.1v-85.7c0-29.3,23.8-53,53.1-53h393.8
					c29.2,0,53,23.8,53,53v85.7c0,29.2-23.8,53.1-53,53.1h-292.2L-3845.3,1603.3z M-3917.3,1368.4c-24.7,0-44.9,20.1-44.9,44.9v85.7
					c0,24.7,20.1,44.9,44.9,44.9h47.1l24.9,43.2l24.9-43.2h296.9c24.7,0,44.9-20.1,44.9-44.9v-85.7c0-24.8-20.1-44.9-44.9-44.9
					H-3917.3z"/>
			</g>
		</g>
	</g>
	<g>
		<path class="st16" d="M-4100.8,1740.6H-4270c-36,0-65.2,29.3-65.2,65.2V1975c0,27.4,16.7,51.4,42,61c-5,17.5-19.3,31.2-39.1,36.8
			l-13.4,3.8l13.4,4c6.5,1.9,13.4,2.9,20.5,2.9c29.9,0,58.5-16.5,75.1-43.3h135.8c36,0,65.2-29.3,65.2-65.2v-169.2
			C-4035.6,1769.9-4064.8,1740.6-4100.8,1740.6z"/>
		<g class="st9">
			<path class="st1" d="M-4100.8,1725.5H-4270c-33.8,0-61.1,27.4-61.1,61.1v169.2c0,27.4,18,50.5,42.8,58.3
				c-3.7,17.8-17.3,36.1-42.8,43.4c30.9,9.2,71.2-4.9,92.2-40.6h138.1c33.8,0,61.1-27.4,61.1-61.1v-169.2
				C-4039.6,1752.9-4067,1725.5-4100.8,1725.5z"/>
			<g>
				<path class="st20" d="M-4311.8,2064.4c-7.1,0-14-1-20.5-2.9l-13.4-4l13.4-3.8c19.8-5.7,34.1-19.3,39.1-36.8
					c-25.3-9.6-42-33.6-42-61v-169.2c0-36,29.3-65.2,65.2-65.2h169.2c36,0,65.2,29.3,65.2,65.2v169.2c0,36-29.3,65.2-65.2,65.2
					h-135.8C-4253.2,2047.8-4281.8,2064.4-4311.8,2064.4z M-4316.3,2056.1c1.5,0.1,3,0.2,4.6,0.2c27.8,0,54.3-15.8,69.3-41.3l1.2-2
					h140.5c31.5,0,57.1-25.6,57.1-57v-169.2c0-31.5-25.6-57-57.1-57H-4270c-31.5,0-57.1,25.6-57.1,57v169.2c0,25,16.1,46.9,40,54.4
					l3.5,1.1l-0.7,3.6C-4288,2032.7-4299.6,2047.4-4316.3,2056.1z"/>
			</g>
		</g>
	</g>
	<g>
		<path class="st16" d="M-3565.5,2402.9c6-11.5,9.2-24.4,9.2-37.5v-136.6c0-44.6-36.3-80.8-80.8-80.8H-3814
			c-44.6,0-80.8,36.3-80.8,80.8v136.6c0,44.6,36.2,80.8,80.8,80.8h176.9c1.6,0,3.2,0,4.7-0.1l76.4,40.6L-3565.5,2402.9z"/>
		<g class="st9">
			<path class="st1" d="M-3799.1,2132h176.9c42.4,0,76.7,34.4,76.7,76.7v136.6c0,13.3-3.4,25.8-9.3,36.7l8.8,77.4l-70.6-37.5
				c-1.9,0.1-3.7,0.2-5.6,0.2h-176.9c-42.4,0-76.7-34.4-76.7-76.7v-136.6C-3875.8,2166.3-3841.5,2132-3799.1,2132z"/>
			<g>
				<path class="st20" d="M-3541.1,2466.6l-76.4-40.6c-1.6,0.1-3.1,0.2-4.7,0.2h-176.9c-44.6,0-80.8-36.3-80.8-80.8v-136.6
					c0-44.6,36.2-80.8,80.8-80.8h176.9c44.6,0,80.8,36.2,80.8,80.8v136.6c0,13-3.2,26-9.2,37.5L-3541.1,2466.6z M-3615.7,2417.6
					l64.8,34.4l-8.1-70.9l0.6-1.1c5.8-10.6,8.8-22.6,8.8-34.7v-136.6c0-40.1-32.6-72.6-72.6-72.6h-176.9
					c-40.1,0-72.6,32.6-72.6,72.6v136.6c0,40,32.6,72.6,72.6,72.6h176.9c1.8,0,3.5-0.1,5.3-0.2L-3615.7,2417.6z"/>
			</g>
		</g>
	</g>
	<g>
		<polygon class="st16" points="-3933.9,1773 -3933.9,1974.7 -3893.9,1974.7 -3894.8,2048 -3772.6,1974.7 -3541.1,1974.7 
			-3541.1,1773 		"/>
		<g class="st9">
			<polygon class="st1" points="-3556,1761 -3940.6,1761 -3940.6,1954.6 -3900.6,1954.6 -3901.5,2024.8 -3784.5,1954.6 
				-3556,1954.6 			"/>
			<g>
				<path class="st20" d="M-3905.6,2032l0.9-73.3h-40V1757h392.8v201.8h-231.4L-3905.6,2032z M-3936.5,1950.5h40.1l-0.8,67l111.7-67
					h225.5v-185.4h-376.4V1950.5z"/>
			</g>
		</g>
	</g>
	<g>
		<path class="st16" d="M-4045.9,2242.2c-15.6-30.1-51.7-52.4-94.8-58.3c-26.7-3.7-53.6-0.4-75.6,9.1c-6.1-0.5-12.3-0.7-18.4-0.7
			c-82.8,0-148.8,43-156.9,102.2c-9.4,68.2,60.7,134.3,156.2,147.4c11.1,1.5,22.3,2.3,33.3,2.3c41.8,0,80.5-11,109.5-30.9l75.1,42.8
			l-0.5-85.8c16.2-12,26-27.5,28.4-45C-3985,2293.3-4007.2,2260.8-4045.9,2242.2z"/>
		<g class="st9">
			<path class="st1" d="M-4048.9,2221.3c-14-28.3-49-51.4-92.3-57.3c-27.5-3.8-53.5,0-74.3,9.2c-87.7-7-163.3,35.1-171.9,97.9
				c-9.1,66,59.3,130,152.8,142.8c55.4,7.6,107.2-4.5,142.1-29.4l71.2,40.6l-0.5-80.8c15.6-11,26-26,28.4-43.4
				C-3989.1,2269.3-4012.2,2238.5-4048.9,2221.3z"/>
			<g>
				<path class="st20" d="M-4017.3,2432.2l-75.1-42.8c-29,19.9-67.8,30.9-109.5,30.9c-11,0-22.2-0.8-33.3-2.3
					c-95.5-13.1-165.6-79.2-156.2-147.4c8.1-59.2,74.1-102.1,156.9-102.1c6.1,0,12.2,0.2,18.4,0.7c21.9-9.5,48.9-12.8,75.6-9.1
					c43.1,5.9,79.2,28.2,94.8,58.3c38.8,18.6,60.9,51.1,56.5,83.1c-2.4,17.4-12.2,33-28.4,45L-4017.3,2432.2z M-4092.9,2379.7
					l67.4,38.4l-0.4-75.9l1.7-1.2c15.3-10.8,24.6-24.9,26.7-40.7c4-28.7-16.9-58.3-53.2-75.2l-1.3-0.6l-0.6-1.3
					c-13.8-27.9-48.8-49.6-89.2-55.1c-25.6-3.5-51.4-0.3-72.1,8.9l-0.9,0.4l-1-0.1c-6.2-0.5-12.5-0.8-18.7-0.8
					c-78.6,0-141.2,40-148.8,95.1c-8.7,63.7,58.2,125.7,149.3,138.2c10.7,1.5,21.6,2.2,32.2,2.2c41.1,0,79.1-11,106.9-30.9
					L-4092.9,2379.7z"/>
			</g>
		</g>
	</g>
	<g>
		<path class="st17" d="M-1543-173.1c8-38.5,25.1-74.8,57.5-103.5c10.5-9.3,23.5-17.1,36.9-23c25.3-11.1,49.3-5.4,69.6,14.1
			c17,16.3,24.9,35.8,28.8,56.8c8.2,43.8-1,84.8-17,124.9c-11.7,29.3-29,54.9-58.6,72.1c-9.1,5.3-19.1,9.8-29.5,12.6
			c-23.1,6.2-43.8,0.4-60.4-16.5c-20.6-21-29.6-46-32.6-72.7C-1550.6-129.8-1548.3-150.7-1543-173.1z M-1370.3-206.9
			c2.7-9.3,0.2-19.5-6.3-29c-8.1-11.9-22.7-15.8-35.9-9.8c-17.7,8.1-30.1,31.6-26,49.5c3.8,16.6,19.8,25.8,37.7,21.5
			C-1383.2-178.9-1374-190-1370.3-206.9z"/>
		<path class="st17" d="M-1533.3,22.4c13.1,6.2,24.7,11,35.7,16.9c66.9,35.5,138.4,49.8,213.9,49.1c47.5-0.4,93.7-5.4,137.8-19
			c27.1-8.4,53.3-19.2,79.4-29.8c13.8-5.6,24.5-15.3,28-22.7c-19.9-8.1-39.6-7.5-62.2-2.4c1.1-5,1-9,2.8-12.1
			c8.7-15.7,25.7-20.5,43.7-21.6c29.8-1.8,56.4,7.2,77.9,27.4c16,15.1,19.1,32.6,11.8,50.9c-3.8,9.6-14.2,12.7-24.3,18
			c-3.6-16.7-6.7-32.6-21-44c-25.8,31.5-61.1,52-100.6,66.6c-40.7,15-82.7,26.9-128,29.2c-57.1,2.9-113.8,0.7-169.5-15.9
			c-39.9-11.9-77.4-28.2-107.9-55.8C-1526,48-1531.9,37.3-1533.3,22.4z"/>
		<path class="st17" d="M-936.7-156.1c-9.4-6.8-17.8-14.7-27.8-19.8c-17.8-9-37.3-9.1-56.6-6.7c-36.2,4.5-68.2,18.1-99.9,32.4
			c-27.7,12.6-55.9,23.6-89,22c-39.2-1.9-67.5-29.8-64.2-64.5c0.8-8.2,3.3-16.1,5.1-24.2c0.8-0.1,1.6-0.2,2.4-0.3
			c1.5,2,3.9,3.8,4.3,5.9c5.8,32.1,43,46.8,78.9,35.9c24.5-7.4,47.8-17.7,71.3-27.4c32.2-13.3,65.2-24.2,102.3-22.4
			c31.9,1.6,58.9,20.9,69.8,49.6C-937.7-168.9-934.4-162.1-936.7-156.1z"/>
		<path class="st17" d="M-1247.5-68.4c5.8-6.5,10.7-13.9,17.7-19.3c45.6-35,98.9-50.3,161.1-40.3c28.5,4.6,51.7,18.5,70.9,38.2
			c10.2,10.4,13,23.2,16.8,35.6c0.5,1.5-0.6,3.4-1.4,6.8C-1069-99.8-1157.2-88.7-1247.5-68.4z"/>
		<path class="st17" d="M-1335.9-313.7c-1.5-1.2-2.5-1.8-3.2-2.6c-26.2-30.1-61.1-33.6-97.9-28.5c-15.5,2.2-30.4,7.1-46.2,10.9
			c3.6-3.8,7-8.1,11.2-11.7c23.3-20.8,50.6-34.8,85.2-34.8C-1343.8-380.4-1322.3-344.1-1335.9-313.7z"/>
	</g>
	<g>
		<path class="st16" d="M-4054.8,1489.6c1.6-4.3,2.7-8.7,3.3-13.2c3.1-22.6-6.3-45.5-26.5-64.3c-19.8-18.5-47.7-31.1-78.6-35.3
			c-26-3.6-52.5-0.7-74.5,7.9c-64,0.6-116,38.4-116,84.4c0,26.5,17.5,51.6,46.9,67.4l-24.6,91.7l110.4-29.5
			c15.5,8.1,33.3,13.8,51.6,16.3c7.5,1,15,1.5,22.4,1.5l0,0c55.7,0,100.2-29.1,105.7-69.2C-4032,1527.5-4039.1,1507.1-4054.8,1489.6
			z"/>
		<g class="st9">
			<path class="st1" d="M-4059.6,1472.4c1.9-4.6,3.3-9.5,4-14.6c6-43.9-39.5-86.5-101.7-95c-26.8-3.7-52.3-0.4-73.1,8
				c-62.3,0.3-112.7,36.2-112.7,80.3c0,26.9,18.8,50.8,47.6,65.3l-23.6,88l105.1-28.1c15,8.1,32.5,14,51.7,16.6
				c62.2,8.6,117.5-20.2,123.5-64.1C-4036,1508.6-4044.1,1488.8-4059.6,1472.4z"/>
			<g>
				<path class="st20" d="M-4324.8,1610.1l24.6-91.7c-29.4-15.9-46.9-40.9-46.9-67.4c0-46,52-83.7,116-84.4
					c21.9-8.7,48.4-11.5,74.5-7.9c30.9,4.2,58.8,16.8,78.6,35.3c20.2,18.9,29.6,41.7,26.5,64.3c-0.6,4.5-1.7,8.9-3.3,13.2
					c15.7,17.5,22.8,37.9,20.1,57.8c-5.5,40.1-50,69.2-105.7,69.2l0,0c-7.4,0-14.9-0.5-22.4-1.5c-18.3-2.5-36.1-8.1-51.6-16.3
					L-4324.8,1610.1z M-4178.9,1365.3c-17.7,0-34.9,3.2-49.8,9.2l-1.5,0.3c-59.9,0.3-108.7,34.5-108.7,76.2
					c0,24.3,17,47.3,45.3,61.7l3,1.5l-22.6,84.4l99.8-26.7l1.4,0.8c15,8.1,32.4,13.7,50.3,16.1c7.1,1,14.2,1.5,21.3,1.5
					c51.6,0,92.7-26.1,97.6-62.1c2.5-18.1-4.5-36.9-19.7-53l-1.8-1.9l1-2.5c1.9-4.4,3.1-9,3.8-13.6c2.7-19.9-5.8-40.2-24-57.3
					c-18.6-17.4-44.9-29.2-74.2-33.2C-4164.8,1365.8-4171.9,1365.3-4178.9,1365.3z"/>
			</g>
		</g>
		<g>
			<path class="st9" d="M-1461.3-26.2c-12.6-32.6-16.8-68-5.2-105.2c3.8-12.1,10.2-24.2,18-35.2c14.6-20.7,36.3-28.1,62-23.6
				c21.4,3.8,37.2,14.5,50.6,28.2c27.9,28.6,40.8,63.6,47.7,101.3c5.1,27.6,4,55.1-11,82.4c-4.6,8.3-10.3,16.6-17.2,23.8
				c-15.2,15.9-34.5,21.7-55.9,17.2c-26.6-5.6-46-19.7-61.4-38.2C-1446.1,9.7-1454.5-7-1461.3-26.2z M-1341.3-135.8
				c-2.4-8.3-9.3-14.6-19.2-18.5c-12.3-4.9-25.6-0.7-33.2,10.3c-10.1,14.7-8.3,38.2,3.7,49.5c11.1,10.5,28.3,9.5,40.3-2.4
				C-1337.7-108.7-1335.9-121.4-1341.3-135.8z"/>
			<path class="st9" d="M-1374.1,98.1c13.3,1.9,25,3,36.4,5.1c69.2,13,136.9,6.7,204-13.2c42.2-12.5,82.1-28.6,117.7-51.4
				C-994,24.5-973.6,8.6-953.2-7c10.8-8.3,17.7-19.3,18.8-26.4c-19.9-1.8-37.3,3.8-56.1,13.9c-0.4-4.5-1.5-7.8-0.8-10.9
				c3.6-15.6,17.4-24,33.1-29.5c26.1-9.1,52.3-8.4,76.8,3.2c18.3,8.7,25.8,22.7,24.3,40.2c-0.8,9.1-9.2,14.4-16.8,21.5
				c-7.7-13.3-14.7-26-30.6-31.9c-14.5,33.4-40.4,59.7-71.7,82.2c-32.2,23.2-66.4,44-106.3,57.6c-50.1,17.1-101.3,29.8-155.4,30
				c-38.8,0.1-76.6-4.1-111.3-19.6C-1360.7,117.9-1368.8,110.3-1374.1,98.1z"/>
			<path class="st9" d="M-854.9-238.9c-12.1-4-23.4-9.4-35.6-11.4c-21.7-3.6-42.2,2.2-61.7,10.5c-36.7,15.5-66.2,38.8-95,62.8
				c-25.2,21-51.3,40.6-86.7,49c-41.9,9.9-80.6-9.4-88.2-45.2c-1.8-8.4-1.6-17.2-2.4-25.7c0.8-0.3,1.6-0.7,2.5-1
				c2.2,1.5,5.3,2.6,6.4,4.6c16.3,30.4,60.3,33.9,94.6,12.1c23.4-14.9,44.7-32.2,66.3-49.1c29.7-23.1,60.9-44,100.6-53.4
				c34.1-8.1,68.7,3.1,89.3,28.5C-860-251.5-854.3-245.7-854.9-238.9z"/>
			<path class="st9" d="M-1154.5-56.9c4.1-8.3,6.9-17.2,12.5-24.7c36.9-48.9,88.2-80.4,156.9-89.2c31.5-4,60.3,2.9,86.9,16.8
				c14,7.4,21.1,19.3,29,30.6c1,1.4,0.4,3.6,0.7,7.2C-976.3-142.4-1065.7-104.6-1154.5-56.9z"/>
			<path class="st9" d="M-1366.4-232.2c-1.8-0.2-2.9-0.1-3.8-0.4c-35.4-9.6-64.8,4.8-91.4,26.6c-11.2,9.2-20.6,20.2-31.2,30.7
				c1-4.6,1.6-9.4,3.1-14.2c8.2-26.8,23-50.7,50.4-67.6C-1405.3-278.1-1370.5-261.5-1366.4-232.2z"/>
		</g>
	</g>
</g>
<path d="M-541.8-476.9C-582.9-546.6-666-599.7-764-619c-398.4-78.7-813.7-78.7-1212,0c-98.1,19.3-181.2,72.5-222.3,142.2
	c-25,42.4-31.7,86.3-19.4,126.5l214.6,749.4c27.2,89.5,110.6,149.6,207.7,149.6c14.3,0,28.7-1.4,42.8-4.2
	c140.1-27.7,285.6-40,431.3-36.4l235.5,414.1l221-388.4c62.6-23.7,108.9-72.4,127.9-135L-522.5-350
	C-510.1-390.6-516.8-434.5-541.8-476.9z"/>
<g>
	<path class="st1" d="M-712.4-503.8c-368.1-100.7-752.4-129.4-1131.4-84.5c-148,17.4-249.8,117.9-229,208.5
		c49.9,236.2,99.7,472.4,149.7,708.6c20.8,91,111.8,148,204.2,137.3c140.7-16.7,282.5-17,422.8-2.4l182.8,379.5l219.6-322.3
		c54.5-13.9,101.9-51,123.4-106C-685.8,188.7-601.4-37.4-517-263.6C-482.9-350.1-568.7-464.7-712.4-503.8z"/>
	<g>
		<path class="st20" d="M-1116.2,881.8l-192.6-399.9c-136.7-13.6-274.2-12.5-407.7,3.4c-13.5,1.5-27.1,1.9-40.6,0.9
			c-91.2-6.8-165.4-68.3-184.8-153l-149.8-708.9c-8.8-38.1,0.6-78.3,27-115.7c43.4-61.6,125.2-105,218.6-116
			c379.7-44.9,769.9-15.8,1138.7,85.1c90.8,24.8,165.2,79.8,199,147.2c20.6,41,23.8,82.1,9.3,118.8l-253.2,678.2
			c-22.2,56.5-69.1,98.4-129.5,116L-1116.2,881.8z M-1353.2,439.3c19.7,1.5,39.4,3.2,59.1,5.2l10.7,1.2l172.9,359L-905.5,504
			l7.1-1.8c51.6-13.1,91.8-47.5,110.2-94.3l253.2-678.2c10.5-26.5,7.7-56.8-7.8-87.7c-28.5-56.8-95.4-105.6-174.6-127.2
			c-364-99.6-749.2-128.4-1124-84c-81.5,9.6-154.9,47.9-191.6,99.8c-19.9,28.3-27.1,57.7-20.8,85.2l149.8,709
			c15.2,66.7,76.9,117.3,149.9,122.8c11,0.8,22.2,0.6,33.2-0.7C-1600.5,432.5-1476.8,430-1353.2,439.3z"/>
	</g>
</g>
<g>
	<path class="st21" d="M-1832.5-349.9c98-107.1,418.8-205.5,537.5,87.5c-3.8-2.6,212.8-266.6,448.4-80
		c47.2,37.4,81.4,89.7,86.8,145.1c12.4,125.8-92.4,223.7-184.2,307.7c-50.7,46.4-104.4,94-136.6,152.3
		c-14.8,26.8-24.3,55.8-28.2,85.5c-1.8,13.9-10,69.5,8.2,98.5c-335.8-137-569.7-273.3-688.3-408.3c-70-79.7-125-183.6-98.6-284.7
		C-1878.4-280.5-1858.6-322.8-1832.5-349.9z"/>
	<g>
		<g>
			<path class="st1" d="M-1567.4-1.5c-38.9,11.1-66.5-19.4-78.3-48.9c-23.9-59.5-19.2-161.7,51.4-198.8c1.9-1,3.8-1.9,5.7-2.8
				c37.9-17,81-8.7,121.4,23.3c25.5,20.2,49.5,50.3,61.3,76.5c20.2,45.2-4,70.5-21.5,78.4c-11.1,5-86.3,44.7-131,68.6l-4.3,2.3
				L-1567.4-1.5z"/>
			<path d="M-1420.1-74c-2.4,1.5-4.5,2.6-6,3.2c-11,4.9-86.1,44.6-130.8,68.5l-4.9,2.5l-4.6,1.3c-41,11.7-69.9-20-82.2-50.8
				c-24.3-60.6-19.5-164.9,52.9-202.9c1.9-1,3.9-2,5.8-2.8c39.1-17.5,83.4-9.1,124.7,23.8c25.9,20.5,50.3,51,62.2,77.7
				c9.2,20.6,10.4,40,3.4,55.9C-1405-85.3-1413.7-78-1420.1-74z M-1564-5.9l4-2.1c44.8-23.9,120.1-63.7,131.2-68.7
				c10.1-4.5,18.8-13.3,23.3-23.5c6.3-14.4,5.2-31.4-3.4-50.6c-11.6-25.8-35.2-55.4-60.4-75.3c-39.3-31.2-81.3-39.4-118-22.9
				c-1.8,0.8-3.7,1.7-5.5,2.7c-69,36.2-73.3,136.3-49.9,194.7c11.3,28.3,37.6,57.5,74.4,47L-1564-5.9z"/>
		</g>
		<path d="M-1571.4,0.8c-35.4,10.1-66-147.3,7.9-186.1s163.7,97.9,144.6,106.4C-1437.8-70.5-1571.4,0.8-1571.4,0.8z"/>
		<path d="M-1684.8-207.5c2-34.6,20.1-68.5,48.1-88.9c29.4-21.3,67.2-27.9,102.2-18.7c15.2,4,20.7-19.8,5.5-23.8
			c-41.5-11-88.2-2.8-122.6,23.2c-34.4,26.1-55.2,65.9-57.7,108.9C-1710.1-191-1685.7-191.9-1684.8-207.5L-1684.8-207.5z"/>
		<path class="st1" d="M-1556.4-188.5c10.5,21.9,26.6,52.2,35.5,50.7c8.2-1.3,9.1-28.4,8.4-50.5
			C-1526.9-193.1-1541.9-193.9-1556.4-188.5z"/>
	</g>
	<g>
		<g>
			<path class="st1" d="M-1163.3-8.4c-37-10.6-43.8-49.1-38.5-78.9c10.8-60,66-140,141.7-134.3c2,0.2,4,0.4,6,0.6
				c39.1,5.4,69.7,33.8,86.1,80c10.3,29.2,14.6,65.5,10.8,92.6C-963.7-1.7-996,6.5-1014.1,4c-11.5-1.6-92.1-7.5-140.2-10.8l-4.6-0.3
				L-1163.3-8.4z"/>
			<path d="M-1008.1,7.5c-2.3,0-4.5-0.2-6.5-0.4c-11.3-1.6-91.9-7.4-140-10.8l-5.2-0.4l-4.4-1.3c-38.9-11.2-46.2-51.4-40.7-82.4
				c11-61.1,67.5-142.7,145-136.8c2.1,0.2,4.1,0.4,6.1,0.7c40.3,5.6,71.8,34.7,88.6,82c10.5,29.6,14.8,66.5,11,94
				C-960.3-4-988.5,7.5-1008.1,7.5z M-1158.4-10.2l4.3,0.3c48.2,3.3,128.9,9.2,140.4,10.8c16.9,2.3,47.2-5.5,53.4-49.7
				c3.7-26.6-0.5-62.4-10.7-91.1c-16-45-45.6-72.7-83.6-78c-1.9-0.3-3.8-0.5-5.8-0.6c-73.9-5.7-127.9,72.9-138.4,131.8
				c-5.1,28.5,1.3,65.3,36.3,75.4h0L-1158.4-10.2z"/>
		</g>
		<path d="M-1167.7-8.6c-33.6-9.7,21.1-152,100.2-146c79.1,6,82.6,161.4,63,158.7C-1024.1,1.4-1167.7-8.6-1167.7-8.6z"/>
		<path d="M-1107.1-267.6c19.7-19.2,47.9-29.1,75.3-25.5c26.1,3.4,50.1,19,64.3,41.1c6.4,10,22.5,0.7,16-9.4
			c-17.4-27-46-45.7-77.9-50c-33.1-4.4-67.1,7.4-90.9,30.6C-1128.8-272.4-1115.7-259.3-1107.1-267.6L-1107.1-267.6z"/>
		<path class="st1" d="M-1051.4-151c-11.6,17.7-22.4,38.8-12,44.7c10.1,5.7,29.3-5.1,45-16.2C-1026.8-135.4-1037.7-145.8-1051.4-151
			z"/>
	</g>
	<path class="st22" d="M-1277.8,13.2c0,20.4-31.4,36.9-70.1,36.9c-38.7,0-70.1-16.5-70.1-36.9c0-20.4,31.4-36.9,70.1-36.9
		C-1309.2-23.7-1277.8-7.2-1277.8,13.2z"/>
	<g>
		<g>
			<path class="st1" d="M-1088.6,75.4c0,0-79,124.1-189.3,138.6c-110.3,14.5-206.6-99.2-206.6-99.2l26.3-23.3
				c0,0,73.4,58.3,193.8,42.6c120.3-15.6,135.3-73.4,135.3-73.4L-1088.6,75.4z"/>
			<path d="M-1277.7,217c-46,6-96.8-9.5-147-44.8c-37.8-26.5-62.3-55.3-62.5-55.5l-1.7-2l30.7-27.2l2.3,1.9
				c0.7,0.6,73.8,57.2,191.1,41.9c60.9-7.9,93.7-26.9,110.4-41.4c18.1-15.6,22-29.6,22-29.7l0.9-3.5l47.7,17.1l-1.9,2.9
				c-0.2,0.3-20.3,31.7-53.8,64.4c-31,30.3-80.1,68.1-138.1,75.7C-1277.6,217-1277.7,217-1277.7,217z M-1480,115
				c13.6,15,102.6,108.9,201.5,96.1c0.1,0,0.2,0,0.2,0c98-12.9,172.1-115.5,184.8-134.2l-33.6-12.1c-5.3,13-31.2,58.6-137,72.4
				c-108.4,14.1-180.2-31.8-194-41.5L-1480,115z"/>
		</g>
		<g>
			<path d="M-1085,75.7c-7.4,1-14.5,0.6-21.2-1c-28.8-7-39.5-35.1-39.9-36.3c-0.6-1.5,0.4-3.2,2.2-3.8c1.8-0.5,3.7,0.2,4.2,1.8
				c0.1,0.3,10.1,26.5,35.6,32.6c18.6,4.5,40.9-2.6,66.4-21c1.5-1.1,3.6-0.9,4.7,0.4c1.1,1.3,0.9,3.1-0.6,4.2
				C-1052.1,65.9-1069.3,73.6-1085,75.7z"/>
			<path d="M-1540.1,132.1c-5,0.6-10.1,1.2-15.5,1.6c-1.9,0.1-3.4-1.1-3.6-2.7c-0.1-1.6,1.2-3.1,3.2-3.2c43.7-3.5,73.3-14.3,88-32.2
				c13.3-16.2,9-32.5,8.9-32.6c-0.4-1.6,0.7-3.2,2.5-3.7c1.8-0.4,3.6,0.5,4.1,2.1c0.2,0.8,5.1,19.2-10.1,37.6
				C-1476.7,116.1-1502.7,127.2-1540.1,132.1z"/>
			<path d="M-1414.8,180.7c-0.3,0-0.5,0-0.8,0c-1.8-0.2-3.1-1.6-2.9-3.3l8.7-59c0.2-1.6,1.9-2.8,3.8-2.7c1.8,0.2,3.1,1.6,2.9,3.3
				l-8.7,59C-1412,179.4-1413.3,180.5-1414.8,180.7z"/>
			<path d="M-1327.4,215.4c-0.2,0-0.5,0-0.7,0c-1.9-0.1-3.2-1.5-3-3.1l7.7-76c0.2-1.6,1.8-2.9,3.7-2.8c1.9,0.1,3.2,1.5,3,3.1
				l-7.7,76C-1324.6,214-1325.9,215.2-1327.4,215.4z"/>
			<path d="M-1239.4,203.9c-1.6,0.2-3.1-0.6-3.6-1.9l-24.7-66.8c-0.6-1.5,0.4-3.3,2.2-3.8c1.8-0.6,3.7,0.2,4.2,1.8l24.7,66.8
				c0.6,1.5-0.4,3.3-2.2,3.8C-1238.9,203.9-1239.2,203.9-1239.4,203.9z"/>
			<path d="M-1159.8,156.1c-1.5,0.2-3-0.5-3.5-1.8l-19.2-46.1c-0.6-1.5,0.3-3.3,2-3.9c1.7-0.6,3.7,0.1,4.3,1.7l19.2,46.1
				c0.6,1.5-0.3,3.3-2,3.9C-1159.3,156-1159.6,156.1-1159.8,156.1z"/>
		</g>
	</g>
</g>
</svg>
