<svg id="Layer_1" data-name="Layer 1" xmlns="http://www.w3.org/2000/svg" xmlns:xlink="http://www.w3.org/1999/xlink" viewBox="0 0 1087 442"><defs><style>.cls-1{opacity:0.51;}.cls-2,.cls-3{fill:#b3b3b3;stroke:#515151;stroke-width:40px;}.cls-10,.cls-11,.cls-12,.cls-13,.cls-14,.cls-15,.cls-18,.cls-19,.cls-2,.cls-20,.cls-21,.cls-22,.cls-23,.cls-24,.cls-27,.cls-28,.cls-29,.cls-30,.cls-31,.cls-32,.cls-33,.cls-36,.cls-37,.cls-38,.cls-39,.cls-4,.cls-5,.cls-6,.cls-9{stroke-miterlimit:10;}.cls-10,.cls-11,.cls-12,.cls-13,.cls-14,.cls-15,.cls-16,.cls-17,.cls-18,.cls-19,.cls-20,.cls-21,.cls-31,.cls-32,.cls-33,.cls-34,.cls-35,.cls-36,.cls-37,.cls-38,.cls-39,.cls-4,.cls-5,.cls-6,.cls-7,.cls-8,.cls-9{stroke:#fff;stroke-width:2px;}.cls-4{fill:url(#Orchid);}.cls-5{fill:url(#Orchid-2);}.cls-6{fill:url(#Orchid-3);}.cls-7{fill:url(#Orchid-4);}.cls-8{fill:url(#Orchid-5);}.cls-9{fill:url(#Orchid-6);}.cls-10{fill:url(#Orchid-7);}.cls-11{fill:url(#Orchid-8);}.cls-12{fill:url(#Orchid-9);}.cls-13{fill:url(#Orchid-10);}.cls-14{fill:url(#Orchid-11);}.cls-15{fill:url(#Orchid-12);}.cls-16{fill:url(#Orchid-13);}.cls-17{fill:url(#Orchid-14);}.cls-18{fill:url(#Orchid-15);}.cls-19{fill:url(#Orchid-16);}.cls-20{fill:url(#Orchid-17);}.cls-21{fill:url(#Orchid-18);}.cls-22,.cls-23,.cls-24,.cls-25,.cls-26,.cls-27,.cls-28,.cls-29,.cls-30{stroke:#ff00b7;stroke-width:0.25px;}.cls-22{fill:url(#Orchid-19);}.cls-23{fill:url(#Orchid-20);}.cls-24{fill:url(#Orchid-21);}.cls-25{fill:url(#Orchid-22);}.cls-26{fill:url(#Orchid-23);}.cls-27{fill:url(#Orchid-24);}.cls-28{fill:url(#Orchid-25);}.cls-29{fill:url(#Orchid-26);}.cls-30{fill:url(#Orchid-27);}.cls-31{fill:url(#Orchid-28);}.cls-32{fill:url(#Orchid-29);}.cls-33{fill:url(#Orchid-30);}.cls-34{fill:url(#Orchid-31);}.cls-35{fill:url(#Orchid-32);}.cls-36{fill:url(#Orchid-33);}.cls-37{fill:url(#Orchid-34);}.cls-38{fill:url(#Orchid-35);}.cls-39{fill:url(#Orchid-36);}</style><linearGradient id="Orchid" x1="56.87" y1="260.88" x2="182.84" y2="260.88" gradientUnits="userSpaceOnUse"><stop offset="0" stop-color="#ff7bac"/><stop offset="0.22" stop-color="#ff7bac" stop-opacity="0.76"/><stop offset="0.6" stop-color="#ff7bac" stop-opacity="0.36"/><stop offset="0.87" stop-color="#ff7bac" stop-opacity="0.1"/><stop offset="1" stop-color="#ff7bac" stop-opacity="0"/></linearGradient><linearGradient id="Orchid-2" x1="188.89" y1="259.79" x2="369.43" y2="259.79" xlink:href="#Orchid"/><linearGradient id="Orchid-3" x1="373.69" y1="249.95" x2="427.93" y2="249.95" xlink:href="#Orchid"/><linearGradient id="Orchid-4" x1="343.02" y1="93.07" x2="439.71" y2="93.07" xlink:href="#Orchid"/><linearGradient id="Orchid-5" x1="352.45" y1="91.84" x2="431.92" y2="91.84" xlink:href="#Orchid"/><linearGradient id="Orchid-6" x1="432.71" y1="262.14" x2="600.05" y2="262.14" xlink:href="#Orchid"/><linearGradient id="Orchid-7" x1="607.66" y1="226.94" x2="782.64" y2="226.94" xlink:href="#Orchid"/><linearGradient id="Orchid-8" x1="789.18" y1="244.35" x2="979.09" y2="244.35" xlink:href="#Orchid"/><linearGradient id="Orchid-9" x1="981.99" y1="266.98" x2="1098.57" y2="266.98" xlink:href="#Orchid"/><linearGradient id="Orchid-10" x1="54.15" y1="257.12" x2="180.12" y2="257.12" xlink:href="#Orchid"/><linearGradient id="Orchid-11" x1="186.17" y1="256.03" x2="366.71" y2="256.03" xlink:href="#Orchid"/><linearGradient id="Orchid-12" x1="370.97" y1="246.19" x2="425.21" y2="246.19" xlink:href="#Orchid"/><linearGradient id="Orchid-13" x1="340.3" y1="89.31" x2="436.99" y2="89.31" xlink:href="#Orchid"/><linearGradient id="Orchid-14" x1="349.73" y1="88.08" x2="429.2" y2="88.08" xlink:href="#Orchid"/><linearGradient id="Orchid-15" x1="429.99" y1="258.38" x2="597.33" y2="258.38" xlink:href="#Orchid"/><linearGradient id="Orchid-16" x1="604.94" y1="223.18" x2="779.92" y2="223.18" xlink:href="#Orchid"/><linearGradient id="Orchid-17" x1="786.46" y1="240.6" x2="976.37" y2="240.6" xlink:href="#Orchid"/><linearGradient id="Orchid-18" x1="979.27" y1="263.22" x2="1095.85" y2="263.22" xlink:href="#Orchid"/><linearGradient id="Orchid-19" x1="55.37" y1="266.8" x2="181.33" y2="266.8" xlink:href="#Orchid"/><linearGradient id="Orchid-20" x1="187.38" y1="265.71" x2="367.92" y2="265.71" xlink:href="#Orchid"/><linearGradient id="Orchid-21" x1="372.18" y1="255.87" x2="426.43" y2="255.87" xlink:href="#Orchid"/><linearGradient id="Orchid-22" x1="341.51" y1="98.99" x2="438.2" y2="98.99" xlink:href="#Orchid"/><linearGradient id="Orchid-23" x1="350.95" y1="97.76" x2="430.41" y2="97.76" xlink:href="#Orchid"/><linearGradient id="Orchid-24" x1="431.21" y1="268.06" x2="598.55" y2="268.06" xlink:href="#Orchid"/><linearGradient id="Orchid-25" x1="606.15" y1="232.85" x2="781.13" y2="232.85" xlink:href="#Orchid"/><linearGradient id="Orchid-26" x1="787.67" y1="250.27" x2="977.58" y2="250.27" xlink:href="#Orchid"/><linearGradient id="Orchid-27" x1="980.49" y1="272.9" x2="1097.06" y2="272.9" xlink:href="#Orchid"/><linearGradient id="Orchid-28" x1="53.64" y1="265.04" x2="179.61" y2="265.04" xlink:href="#Orchid"/><linearGradient id="Orchid-29" x1="185.66" y1="263.95" x2="366.2" y2="263.95" xlink:href="#Orchid"/><linearGradient id="Orchid-30" x1="370.46" y1="254.11" x2="424.71" y2="254.11" xlink:href="#Orchid"/><linearGradient id="Orchid-31" x1="339.79" y1="97.23" x2="436.48" y2="97.23" xlink:href="#Orchid"/><linearGradient id="Orchid-32" x1="349.23" y1="96" x2="428.69" y2="96" xlink:href="#Orchid"/><linearGradient id="Orchid-33" x1="429.49" y1="266.3" x2="596.82" y2="266.3" xlink:href="#Orchid"/><linearGradient id="Orchid-34" x1="604.43" y1="231.1" x2="779.41" y2="231.1" xlink:href="#Orchid"/><linearGradient id="Orchid-35" x1="785.95" y1="248.51" x2="975.86" y2="248.51" xlink:href="#Orchid"/><linearGradient id="Orchid-36" x1="978.77" y1="271.14" x2="1095.34" y2="271.14" xlink:href="#Orchid"/></defs><g id="Layer_2" data-name="Layer 2" class="cls-1"><path class="cls-2" d="M0,0Z" transform="translate(-28 -7)"/><path class="cls-2" d="M0,0ZM0,0Z" transform="translate(-28 -7)"/><path class="cls-2" d="M0,0Z" transform="translate(-28 -7)"/><path class="cls-3" d="M0,0Z" transform="translate(-28 -7)"/><path class="cls-3" d="M0,0Z" transform="translate(-28 -7)"/><path class="cls-2" d="M0,0Z" transform="translate(-28 -7)"/><path class="cls-2" d="M0,0Z" transform="translate(-28 -7)"/><path class="cls-2" d="M0,0Z" transform="translate(-28 -7)"/><path class="cls-2" d="M0,0ZM0,0Z" transform="translate(-28 -7)"/><path class="cls-2" d="M0,0Z" transform="translate(-28 -7)"/><path class="cls-2" d="M0,0ZM0,0Z" transform="translate(-28 -7)"/><path class="cls-2" d="M0,0Z" transform="translate(-28 -7)"/><path class="cls-3" d="M0,0Z" transform="translate(-28 -7)"/><path class="cls-3" d="M0,0Z" transform="translate(-28 -7)"/><path class="cls-2" d="M0,0Z" transform="translate(-28 -7)"/><path class="cls-2" d="M0,0Z" transform="translate(-28 -7)"/><path class="cls-2" d="M0,0Z" transform="translate(-28 -7)"/><path class="cls-2" d="M0,0ZM0,0Z" transform="translate(-28 -7)"/><path class="cls-2" d="M0,0Z" transform="translate(-28 -7)"/><path class="cls-2" d="M0,0ZM0,0Z" transform="translate(-28 -7)"/><path class="cls-2" d="M0,0Z" transform="translate(-28 -7)"/><path class="cls-3" d="M0,0Z" transform="translate(-28 -7)"/><path class="cls-3" d="M0,0Z" transform="translate(-28 -7)"/><path class="cls-2" d="M0,0Z" transform="translate(-28 -7)"/><path class="cls-2" d="M0,0Z" transform="translate(-28 -7)"/><path class="cls-2" d="M0,0Z" transform="translate(-28 -7)"/><path class="cls-2" d="M0,0ZM0,0Z" transform="translate(-28 -7)"/><path class="cls-4" d="M0,0Z" transform="translate(-28 -7)"/><path class="cls-5" d="M0,0ZM0,0Z" transform="translate(-28 -7)"/><path class="cls-6" d="M0,0Z" transform="translate(-28 -7)"/><path class="cls-7" d="M0,0Z" transform="translate(-28 -7)"/><path class="cls-8" d="M0,0Z" transform="translate(-28 -7)"/><path class="cls-9" d="M0,0Z" transform="translate(-28 -7)"/><path class="cls-10" d="M0,0Z" transform="translate(-28 -7)"/><path class="cls-11" d="M0,0Z" transform="translate(-28 -7)"/><path class="cls-12" d="M0,0ZM0,0Z" transform="translate(-28 -7)"/><path class="cls-13" d="M0,0Z" transform="translate(-28 -7)"/><path class="cls-14" d="M0,0ZM0,0Z" transform="translate(-28 -7)"/><path class="cls-15" d="M0,0Z" transform="translate(-28 -7)"/><path class="cls-16" d="M0,0Z" transform="translate(-28 -7)"/><path class="cls-17" d="M0,0Z" transform="translate(-28 -7)"/><path class="cls-18" d="M0,0Z" transform="translate(-28 -7)"/><path class="cls-19" d="M0,0Z" transform="translate(-28 -7)"/><path class="cls-20" d="M0,0Z" transform="translate(-28 -7)"/><path class="cls-21" d="M0,0ZM0,0Z" transform="translate(-28 -7)"/></g><path class="cls-22" d="M0,0Z" transform="translate(-28 -7)"/><path class="cls-23" d="M0,0ZM0,0Z" transform="translate(-28 -7)"/><path class="cls-24" d="M0,0Z" transform="translate(-28 -7)"/><path class="cls-25" d="M0,0Z" transform="translate(-28 -7)"/><path class="cls-26" d="M0,0Z" transform="translate(-28 -7)"/><path class="cls-27" d="M0,0Z" transform="translate(-28 -7)"/><path class="cls-28" d="M0,0Z" transform="translate(-28 -7)"/><path class="cls-29" d="M0,0Z" transform="translate(-28 -7)"/><path class="cls-30" d="M0,0ZM0,0Z" transform="translate(-28 -7)"/><path class="cls-31" d="M0,0Z" transform="translate(-28 -7)"/><path class="cls-32" d="M0,0ZM0,0Z" transform="translate(-28 -7)"/><path class="cls-33" d="M0,0Z" transform="translate(-28 -7)"/><path class="cls-34" d="M0,0Z" transform="translate(-28 -7)"/><path class="cls-35" d="M0,0Z" transform="translate(-28 -7)"/><path class="cls-36" d="M0,0Z" transform="translate(-28 -7)"/><path class="cls-37" d="M0,0Z" transform="translate(-28 -7)"/><path class="cls-38" d="M0,0Z" transform="translate(-28 -7)"/><path class="cls-39" d="M0,0ZM0,0Z" transform="translate(-28 -7)"/></svg>