<?xml version="1.0" encoding="utf-8"?>
<!-- Generator: Adobe Illustrator 25.1.0, SVG Export Plug-In . SVG Version: 6.00 Build 0)  -->
<svg version="1.1" id="Layer_1" xmlns="http://www.w3.org/2000/svg" xmlns:xlink="http://www.w3.org/1999/xlink" x="0px" y="0px"
	 viewBox="0 0 1920 1080" style="enable-background:new 0 0 1920 1080;" xml:space="preserve">
<style type="text/css">
	.st0{clip-path:url(#SVGID_2_);fill-rule:evenodd;clip-rule:evenodd;}
	.st1{fill-rule:evenodd;clip-rule:evenodd;fill:#FEFEFE;}
</style>
<g>
	<g>
		<defs>
			<rect id="SVGID_1_" x="-240" y="-659" width="2400" height="2399.96"/>
		</defs>
		<clipPath id="SVGID_2_">
			<use xlink:href="#SVGID_1_"  style="overflow:visible;"/>
		</clipPath>
		<path class="st0" d="M2160,540.96c0,318.26-126.43,623.48-351.47,848.53c-225.04,225.04-530.27,351.47-848.53,351.47
			c-318.26,0-623.48-126.43-848.53-351.47S-240,859.22-240,540.96c0-318.26,126.43-623.48,351.47-848.53S641.74-659.04,960-659.04
			c318.26,0,623.48,126.43,848.53,351.47C2033.57-82.52,2160,222.7,2160,540.96L2160,540.96z M2160,540.96"/>
	</g>
	<path class="st1" d="M1192.32,1328.16H485.76c-121.92,0-221.76-99.84-221.76-222.72V623.52c0-122.88,99.84-222.72,221.76-222.72
		h706.56c122.88,0,222.72,99.84,222.72,222.72v481.92C1415.04,1228.32,1315.2,1328.16,1192.32,1328.16L1192.32,1328.16z
		 M1181.76,1200.48H496.32c-57.6,0-104.64-47.04-104.64-104.64V633.12c0-57.6,47.04-104.64,104.64-104.64h685.44
		c57.6,0,104.64,47.04,104.64,104.64v462.72C1286.4,1153.44,1239.36,1200.48,1181.76,1200.48L1181.76,1200.48z M1181.76,1200.48"/>
	<path class="st1" d="M1524.48,1091.04H1401.6c-6.72,0-12.48-5.76-12.48-12.48c0-7.68,5.76-13.44,12.48-13.44V663.84
		c-6.72,0-12.48-5.76-12.48-13.44c0-6.72,5.76-12.48,12.48-12.48h122.88c6.72,0,12.48,5.76,12.48,12.48v428.16
		C1536.96,1085.28,1531.2,1091.04,1524.48,1091.04L1524.48,1091.04z M1524.48,1091.04"/>
	<path class="st1" d="M276.48,1091.04H153.6c-6.72,0-12.48-5.76-12.48-12.48V650.4c0-6.72,5.76-12.48,12.48-12.48h122.88
		c6.72,0,12.48,5.76,12.48,12.48c0,7.68-5.76,13.44-12.48,13.44v401.28c6.72,0,12.48,5.76,12.48,13.44
		C288.96,1085.28,283.2,1091.04,276.48,1091.04L276.48,1091.04z M276.48,1091.04"/>
	<path class="st1" d="M1115.52,426.72c-7.68,0-13.44-5.76-13.44-13.44v-9.6c-109.44,8.64-532.8,23.04-538.56,23.04
		c-7.68,0-13.44-5.76-13.44-13.44v-78.72c0-50.88,41.28-92.16,92.16-92.16h393.6c50.88,0,92.16,41.28,92.16,92.16v78.72
		C1128,420.96,1122.24,426.72,1115.52,426.72L1115.52,426.72z M1115.52,426.72"/>
	<path class="st1" d="M839.04,267.36c-6.72,0-12.48-5.76-12.48-12.48V-14.88c0-7.68,5.76-13.44,12.48-13.44
		c6.72,0,12.48,5.76,12.48,13.44v269.76C851.52,261.6,845.76,267.36,839.04,267.36L839.04,267.36z M839.04,267.36"/>
	<path class="st1" d="M839.04-2.4c-53.76,0-97.92-44.16-97.92-97.92c0-53.76,44.16-97.92,97.92-97.92
		c53.76,0,97.92,44.16,97.92,97.92C936.96-46.56,892.8-2.4,839.04-2.4L839.04-2.4z M839.04-2.4"/>
	<path class="st1" d="M624,873.12c-69.12,0-125.76-56.64-125.76-125.76c0-70.08,56.64-126.72,125.76-126.72
		c70.08,0,126.72,56.64,126.72,126.72C750.72,816.48,694.08,873.12,624,873.12L624,873.12z M841.92,1108.32
		c-100.8,0-181.44-81.6-181.44-181.44V914.4c0-6.72,5.76-12.48,12.48-12.48h336.96c7.68,0,13.44,5.76,13.44,12.48v12.48
		C1023.36,1026.72,941.76,1108.32,841.92,1108.32L841.92,1108.32z M841.92,1108.32"/>
	<path class="st1" d="M1054.08,873.12c-70.08,0-126.72-56.64-126.72-125.76c0-70.08,56.64-126.72,126.72-126.72
		c69.12,0,125.76,56.64,125.76,126.72C1179.84,816.48,1123.2,873.12,1054.08,873.12L1054.08,873.12z M1054.08,873.12"/>
	<path class="st1" d="M1308.48,345.12c-2.88,0-4.8-0.96-6.72-1.92c-4.8-2.88-6.72-7.68-5.76-12.48l9.6-72.96
		c-130.56-9.6-234.24-120-234.24-251.52c0-139.2,113.28-252.48,252.48-252.48h202.56c139.2,0,252.48,113.28,252.48,252.48
		c0,139.2-113.28,252.48-252.48,252.48h-72.96L1315.2,343.2C1313.28,345.12,1310.4,345.12,1308.48,345.12L1308.48,345.12z
		 M1444.8,188.64c-5.76,0-11.52-3.84-12.48-9.6l-20.16-73.92h-113.28l-19.2,73.92c-1.92,6.72-9.6,10.56-16.32,8.64
		c-6.72-0.96-10.56-8.64-8.64-15.36l88.32-331.2c1.92-4.8,6.72-8.64,12.48-8.64c5.76,0,11.52,3.84,12.48,8.64l66.24,246.72
		c0,0.96,0,0.96,0,1.92l22.08,82.56c1.92,6.72-1.92,14.4-8.64,15.36C1446.72,188.64,1445.76,188.64,1444.8,188.64L1444.8,188.64z
		 M1584,188.64c-7.68,0-13.44-5.76-13.44-12.48v-339.84c0-6.72,5.76-12.48,13.44-12.48c6.72,0,12.48,5.76,12.48,12.48v339.84
		C1596.48,182.88,1590.72,188.64,1584,188.64L1584,188.64z M1405.44,79.2l-49.92-185.28L1306.56,79.2H1405.44z M1405.44,79.2"/>
</g>
</svg>
